Coordinates
version=1
nRows=26
nColumns=24
inDegrees=yes

Units are S.I. units (second, meters, Newtons, ...)
Angles are in degrees.

endheader
time	pelvis_tilt	pelvis_list	pelvis_rotation	pelvis_tx	pelvis_ty	pelvis_tz	hip_flexion_r	hip_adduction_r	hip_rotation_r	knee_angle_r	ankle_angle_r	subtalar_angle_r	mtp_angle_r	hip_flexion_l	hip_adduction_l	hip_rotation_l	knee_angle_l	ankle_angle_l	subtalar_angle_l	mtp_angle_l	lumbar_extension	lumbar_bending	lumbar_rotation
      1.41633333	      2.43521567	     -2.54542303	     -8.28741283	      0.96186908	      0.99641640	      0.29575458	    -21.36450437	      5.79128775	     10.91337395	    -10.68284043	     16.97109589	     -2.04541306	      3.14328014	     26.94199055	     -4.36928576	     -4.96764395	     -1.02114486	     11.44328635	     -9.05976651	     -2.56167334	     -2.02153020	     -0.71975979	      7.52005553
      1.42050000	      2.41110319	     -2.41510148	     -8.43273307	      0.96765072	      0.99571336	      0.29564549	    -21.55515163	      5.55726208	     10.89843127	    -10.87991428	     16.85306233	     -1.98765131	      3.13679824	     26.91692779	     -4.25298495	     -4.78476819	     -1.61874445	     11.77765382	     -9.34857387	     -2.53196483	     -1.88961469	     -0.89392535	      7.67894120
      1.42466667	      2.38240767	     -2.28412681	     -8.58124313	      0.97349578	      0.99500410	      0.29552370	    -21.73748507	      5.31889190	     10.88003028	    -11.08728828	     16.72128538	     -1.92235421	      3.13894667	     26.89031213	     -4.13374983	     -4.61078937	     -2.22040531	     12.10079875	     -9.63158395	     -2.50184405	     -1.75498598	     -1.06470759	      7.82669691
      1.42883333	      2.34729264	     -2.14790497	     -8.71263454	      0.97939668	      0.99428359	      0.29536071	    -21.90764808	      5.07777913	     10.81816090	    -11.30279710	     16.58995438	     -1.80520646	      3.16292180	     26.84558748	     -3.99400548	     -4.38422122	     -2.77452107	     12.35392734	     -9.97561278	     -2.44805234	     -1.59314561	     -1.24101488	      8.07644819
      1.43300000	      2.31142380	     -2.00932632	     -8.86798080	      0.98532281	      0.99357948	      0.29520928	    -22.05659713	      4.82311585	     10.75587369	    -11.55914011	     16.46038832	     -1.65389806	      3.23872697	     26.78327522	     -3.85778043	     -4.20178851	     -3.30516098	     12.53855236	    -10.36619897	     -2.34933626	     -1.45326300	     -1.39935791	      8.30702814
      1.43716667	      2.28436418	     -1.86549089	     -9.00651534	      0.99133751	      0.99288506	      0.29504323	    -22.23145366	      4.56849194	     10.71880023	    -11.78462269	     16.27135606	     -1.59650357	      3.26565814	     26.70901590	     -3.70920082	     -4.07105394	     -3.84013205	     12.78849389	    -10.58951866	     -2.31181035	     -1.29334355	     -1.58480850	      8.36124240
      1.44133333	      2.25763073	     -1.71879161	     -9.13941914	      0.99736847	      0.99219099	      0.29482604	    -22.37777077	      4.30458256	     10.59350826	    -12.06285359	     16.12221528	     -1.39123503	      3.41603962	     26.61147678	     -3.54469992	     -3.89130137	     -4.31123023	     12.89251608	    -10.96361026	     -2.17903055	     -1.14347499	     -1.76142764	      8.61971925
      1.44550000	      2.22343438	     -1.56574694	     -9.26651718	      1.00349594	      0.99149882	      0.29462120	    -22.53425638	      4.04142837	     10.53113072	    -12.30728486	     15.88868645	     -1.32601747	      3.46198183	     26.52098687	     -3.37714228	     -3.79698987	     -4.78949733	     13.06407371	    -11.14903134	     -2.13424279	     -0.96014445	     -1.95190060	      8.66140598
      1.44966667	      2.20132421	     -1.40682036	     -9.39252048	      1.00962824	      0.99082522	      0.29436567	    -22.66545115	      3.76068441	     10.36197599	    -12.62263486	     15.73309929	     -1.06222873	      3.72393471	     26.39949772	     -3.19143648	     -3.66605888	     -5.20711500	     13.05058250	    -11.51817430	     -1.94366115	     -0.80254113	     -2.13930687	      8.92237160
      1.45383333	      2.16254074	     -1.24807696	     -9.50748117	      1.01582887	      0.99013442	      0.29410797	    -22.80312821	      3.49420462	     10.29632515	    -12.88994951	     15.45232077	     -1.01225541	      3.76275706	     26.30822887	     -3.01123180	     -3.64137340	     -5.64420304	     13.12618171	    -11.66770661	     -1.90895349	     -0.63573165	     -2.31498689	      8.93314510
      1.45800000	      2.14611954	     -1.06181400	     -9.60783922	      1.02207057	      0.98948277	      0.29380157	    -22.92150118	      3.18835567	     10.05365042	    -13.23619772	     15.27442783	     -0.70853308	      4.10525618	     26.15993988	     -2.78298807	     -3.54192483	     -5.97918033	     12.94699817	    -12.00878703	     -1.67153384	     -0.45216215	     -2.55956261	      9.18111982
      1.46216667	      2.10048264	     -0.89443114	     -9.69533208	      1.02836770	      0.98881278	      0.29349171	    -23.03227946	      2.92054031	      9.91858203	    -13.53466080	     14.93118194	     -0.63980113	      4.20999131	     26.05845616	     -2.58312269	     -3.54471392	     -6.33886232	     12.86150030	    -12.10778585	     -1.59457738	     -0.21393127	     -2.76170523	      9.19056443
      1.46633333	      2.08557741	     -0.69662599	     -9.78846560	      1.03461702	      0.98818112	      0.29314195	    -23.11344348	      2.60334083	      9.64701745	    -13.94878874	     14.75690621	     -0.30574300	      4.66683688	     25.90852406	     -2.33838584	     -3.48804069	     -6.62595002	     12.55007516	    -12.47716825	     -1.28152056	     -0.07210927	     -3.01870072	      9.39967978
      1.47050000	      2.03625633	     -0.51296324	     -9.85211916	      1.04100326	      0.98753691	      0.29275923	    -23.20489271	      2.32359716	      9.47346843	    -14.25505779	     14.23571961	     -0.31472370	      8.53262487	     25.79666500	     -2.10834343	     -3.49272426	     -6.90234197	     12.19604562	    -12.74310613	      1.34255061	      0.16942176	     -3.19613322	      9.35269453
      1.47466667	      1.99884930	     -0.31443309	     -9.90782924	      1.04737014	      0.98691531	      0.29235951	    -23.28034877	      2.02931206	      9.25378122	    -14.62372020	     13.86339184	     -0.18756316	      8.55154455	     25.70896946	     -1.86857724	     -3.60482884	     -7.24060856	     11.91047359	    -12.74970067	      1.34733038	      0.39349169	     -3.43910919	      9.40899367
      1.47883333	      1.96637774	     -0.08415706	     -9.94481224	      1.05374958	      0.98630954	      0.29189695	    -23.31055982	      1.69833368	      8.89739730	    -15.09113538	     13.61941168	      0.17687651	      8.68792966	     25.60160979	     -1.57922107	     -3.65883203	     -7.50630660	     11.46890514	    -12.95319571	      1.40875426	      0.59071323	     -3.71456922	      9.55339139
      1.48300000	      1.91793821	      0.12749138	     -9.96217617	      1.06017190	      0.98572722	      0.29142049	    -23.35198807	      1.40649351	      8.63487497	    -15.49040151	     13.15297375	      0.26451431	      8.73769798	     25.53420946	     -1.31474070	     -3.77296857	     -7.81310230	     11.02858277	    -12.96119393	      1.43307823	      0.83432484	     -3.96112069	      9.55616820
      1.48716667	      1.88494950	      0.39090390	     -9.98727685	      1.06658481	      0.98517465	      0.29089662	    -23.33749483	      1.03878451	      8.20564164	    -16.02420865	     12.88396124	      0.66908877	      9.03457367	     25.43503600	     -0.98363146	     -3.80085754	     -8.05522659	     10.40864395	    -13.28302014	      1.59347737	      1.04309938	     -4.27976252	      9.65934696
      1.49133333	      1.83772598	      0.63441108	     -9.94783371	      1.07302313	      0.98463424	      0.29027650	    -23.32433222	      0.71980949	      7.76750348	    -16.52204954	     12.43933082	      0.99373260	      9.71270378	     25.37265439	     -0.65175185	     -3.77073462	     -8.31717618	      9.71602650	    -13.54452330	      1.98049837	      1.26803427	     -4.55696026	      9.64498784
      1.49550000	      1.79064221	      0.90185060	     -9.90978223	      1.07946318	      0.98413074	      0.28970163	    -23.30813907	      0.39012225	      7.39567391	    -17.00140760	     11.82401102	      0.99204670	     13.38752894	     25.34367010	     -0.31612310	     -3.89560011	     -8.64205351	      9.10913540	    -13.57615941	      3.97210385	      1.50629039	     -4.88693811	      9.64320495
      1.49966667	      1.76339225	      1.16555203	     -9.85536193	      1.08591088	      0.98370407	      0.28908927	    -23.30209614	      0.06598559	      7.01386775	    -17.50756476	     11.23971146	      1.09128740	     13.40373036	     25.32194158	      0.01774907	     -4.07092174	     -9.03103487	      8.58519404	    -13.47844306	      3.96766522	      1.73039176	     -5.20952632	      9.62668645
      1.50383333	      1.72955602	      1.48649783	     -9.77471899	      1.09236600	      0.98327746	      0.28838204	    -23.22774343	     -0.32736382	      6.44021649	    -18.12864339	     10.82148578	      1.49010075	     13.57220534	     25.31731353	      0.42675197	     -4.18166579	     -9.41100232	      7.97868643	    -13.51073594	      4.01648929	      1.93874624	     -5.60602789	      9.59761374
      1.50800000	      1.69622081	      1.78769446	     -9.66168664	      1.09880203	      0.98291653	      0.28766385	    -23.16940835	     -0.67253143	      5.95321099	    -18.70847119	     10.17914131	      1.62796837	     13.69176240	     25.33286234	      0.82042023	     -4.26581790	     -9.84342948	      7.44362136	    -13.43465686	      4.05108997	      2.15025436	     -5.99550573	      9.55192501
      1.51216667	      1.68287812	      2.11678713	     -9.52516675	      1.10524060	      0.98258546	      0.28685087	    -23.08956248	     -1.06316055	      5.30470169	    -19.37139567	      9.66116937	      1.98439649	     14.03254261	     25.36569598	      1.25486103	     -4.36946553	    -10.34504504	      6.91184232	    -13.46640162	      4.15462751	      2.34426492	     -6.39199284	      9.46826788
      1.51633333	      1.67674981	      2.43911127	     -9.34163645	      1.11168985	      0.98233839	      0.28599641	    -23.03578343	     -1.42115215	      4.68831919	    -19.97460774	      8.83736527	      2.09545280	     18.35950955	     25.38779529	      1.70262971	     -4.37585193	    -10.84749931	      6.36995857	    -13.49052550	      5.49699737	      2.50990441	     -6.81242341	      9.38384648
      1.52050000	      1.68053732	      2.75984292	     -9.16677483	      1.11811127	      0.98216254	      0.28515741	    -22.96845405	     -1.77891426	      4.09956738	    -20.62690470	      8.03855875	      2.18098330	     18.37239053	     25.43644430	      2.12934307	     -4.51512052	    -11.44701887	      5.98220705	    -13.33169494	      5.48943249	      2.68981305	     -7.20559093	      9.34414431
